<svg width="169" height="39" viewBox="0 0 169 39" fill="none" xmlns="http://www.w3.org/2000/svg">
<path fill-rule="evenodd" clip-rule="evenodd" d="M37.0453 5.68131C38.5361 7.85036 39.3337 10.4168 39.3336 13.0444C39.3323 14.8763 38.9429 16.6873 38.1906 18.3594C37.4383 20.0314 36.3401 21.5268 34.9676 22.7481V39H0V4.22535H16.5615C18.3471 2.28919 20.6789 0.934692 23.2515 0.339283C25.824 -0.256127 28.5173 -0.064692 30.9786 0.888516C33.4399 1.84172 35.5545 3.51226 37.0453 5.68131ZM31.534 16.5834C32.2352 15.5352 32.6081 14.3036 32.6055 13.0444C32.602 11.359 31.9265 9.74384 30.7273 8.55331C29.5282 7.36278 27.9032 6.69416 26.2091 6.69416C24.9435 6.69416 23.7063 7.06771 22.6541 7.76752C21.602 8.46733 20.7821 9.46196 20.2984 10.6255C19.8147 11.789 19.6888 13.0692 19.9367 14.3039C20.1845 15.5387 20.7951 16.6725 21.6909 17.562C22.5868 18.4514 23.7278 19.0564 24.9694 19.3004C26.211 19.5445 27.4976 19.4166 28.6661 18.9329C29.8347 18.4493 30.8327 17.6316 31.534 16.5834ZM6.72811 32.3065H28.2395V25.9298C27.5683 26.0405 26.8894 26.0979 26.2091 26.1014C22.7294 26.0979 19.3932 24.7212 16.9326 22.2733C14.472 19.8254 13.0882 16.5063 13.0847 13.0444C13.0905 12.3316 13.1571 11.6205 13.2837 10.9189H6.72811V32.3065ZM52.0201 11.9223H47.7603V29.0852H52.0201V11.9223ZM60.354 15.8302C56.3728 15.8302 53.7187 18.3782 53.7187 22.6293C53.7187 26.9728 56.2799 29.4549 60.354 29.4549C64.428 29.4549 66.9892 26.8804 66.9892 22.6293C66.9892 18.3782 64.3351 15.8302 60.354 15.8302ZM60.3938 18.9195C61.8535 18.9195 62.7692 20.2925 62.7692 22.6293L62.7957 22.6425C62.7957 25.0189 61.8535 26.3259 60.3938 26.3259C58.934 26.3259 58.0316 25.0189 58.0316 22.6293C58.0316 20.2397 58.934 18.9195 60.3938 18.9195ZM72.8016 29.9698H68.6878L68.7143 29.983C68.9532 32.3462 71.3153 34.0228 75.0045 34.036C79.0653 34.036 81.8255 32.0953 81.8255 28.9928V16.1338H77.6055V18.2632C77.2733 17.6021 76.7648 17.0421 76.1331 16.6462C75.4201 16.1993 74.5853 15.9834 73.7438 16.0282C70.4129 16.0282 68.4356 18.563 68.4356 22.6293C68.4356 26.6956 70.5058 29.0588 73.6244 29.0588C74.4449 29.1186 75.2643 28.9299 75.9749 28.5175C76.6767 28.1103 77.2398 27.5038 77.5922 26.7761V29.1248C77.5922 30.4186 76.7429 31.29 75.1107 31.29C74.6337 31.3508 74.1498 31.2547 73.7329 31.0163C73.316 30.7779 72.9889 30.4104 72.8016 29.9698ZM75.1372 19.2495C76.65 19.2495 77.6055 20.5566 77.6055 22.6293C77.6055 24.7813 76.6633 25.9035 75.1372 25.9035C73.6111 25.9035 72.6955 24.6889 72.6955 22.6293C72.6955 20.5698 73.6244 19.2495 75.1372 19.2495ZM90.1461 15.8302C86.1649 15.8302 83.5109 18.3782 83.5109 22.6293H83.5374C83.5374 26.9728 86.0853 29.4549 90.1461 29.4549C94.2068 29.4549 96.7813 26.8804 96.7813 22.6293C96.7813 18.3782 94.1272 15.8302 90.1461 15.8302ZM90.1859 18.9195C91.6324 18.9195 92.5613 20.2925 92.5613 22.6293L92.5878 22.6425C92.5878 25.0189 91.6456 26.3259 90.1859 26.3259C88.7262 26.3259 87.8238 25.0189 87.8238 22.6293C87.8238 20.2397 88.7394 18.9195 90.1859 18.9195ZM98.8272 11.7779C98.5996 12.1459 98.4879 12.5732 98.5065 13.0049L98.533 13.0181C98.5364 13.2943 98.595 13.5671 98.7052 13.8206C98.8154 14.0741 98.9752 14.3033 99.1752 14.4949C99.3752 14.6865 99.6114 14.8367 99.8702 14.9367C100.129 15.0368 100.405 15.0847 100.683 15.0776C101.117 15.0773 101.541 14.9476 101.901 14.7053C102.261 14.4631 102.539 14.1193 102.701 13.7183C102.862 13.3172 102.9 12.8773 102.808 12.4549C102.716 12.0326 102.5 11.6473 102.186 11.3485C101.872 11.0497 101.476 10.8511 101.048 10.7783C100.619 10.7055 100.179 10.7617 99.7836 10.9399C99.3879 11.118 99.0548 11.4099 98.8272 11.7779ZM102.819 16.1206H98.5065L98.5728 29.138H102.819V16.1206ZM113.17 29.3228C116.422 29.3228 118.332 26.8672 118.332 22.6293L118.412 22.6425C118.412 18.3914 116.488 15.949 113.144 15.9754C112.301 15.9355 111.467 16.155 110.755 16.6038C110.042 17.0527 109.486 17.7092 109.163 18.4838H109.083V16.1602H104.85V33.3231H109.11V26.9068H109.189C109.524 27.6665 110.086 28.3055 110.798 28.7376C111.51 29.1696 112.338 29.3739 113.17 29.3228ZM111.525 19.2363C113.024 19.2363 113.993 20.5698 113.993 22.6293L114.073 22.6425C114.073 24.7813 113.024 26.0091 111.525 26.0091C110.025 26.0091 109.056 24.7021 109.07 22.6293C109.083 20.5566 110.025 19.2363 111.525 19.2363ZM131.417 20.1869C131.391 17.4937 129.174 15.817 125.605 15.817L125.684 15.8302C122.088 15.8302 119.859 17.4804 119.779 20.0681C119.779 22.0616 121.119 23.395 123.68 23.9363L126.149 24.4512C127.171 24.6625 127.569 24.7813 127.569 25.481C127.569 26.1807 126.985 26.5768 125.737 26.5768C124.49 26.5768 123.72 26.0091 123.601 25.0453H119.474C119.646 27.699 122.022 29.4417 125.671 29.4417C129.32 29.4417 131.775 27.6462 131.775 25.0057C131.775 23.0386 130.714 21.9824 128.06 21.4279L125.326 20.8734C124.344 20.6754 123.853 20.4642 123.853 19.7908C123.853 19.1175 124.41 18.6686 125.578 18.6686C126.746 18.6686 127.529 19.2495 127.529 20.1869H131.417ZM141.914 29.1248H146.041L146.121 16.1338H141.874V23.4611C141.92 23.7675 141.899 24.08 141.813 24.3777C141.726 24.6753 141.577 24.9511 141.374 25.1863C141.172 25.4216 140.921 25.6109 140.639 25.7414C140.356 25.872 140.049 25.9407 139.738 25.9431C138.411 25.9431 137.601 25.1113 137.601 23.5799V16.1338H133.341V24.4908C133.289 25.1271 133.372 25.7673 133.585 26.3694C133.799 26.9715 134.138 27.5218 134.58 27.9844C135.023 28.4469 135.558 28.8111 136.152 29.0532C136.746 29.2952 137.384 29.4096 138.026 29.3889C138.875 29.4357 139.716 29.1931 140.408 28.7011C141.1 28.2091 141.603 27.4971 141.834 26.6824H141.914V29.1248ZM152.238 16.1206H148.098L148.125 29.138H152.384V21.4543C152.35 21.1872 152.374 20.9159 152.454 20.6587C152.534 20.4015 152.668 20.1642 152.848 19.9629C153.028 19.7616 153.249 19.6008 153.496 19.4915C153.743 19.3821 154.011 19.3266 154.282 19.3288C155.45 19.3288 156.1 20.0285 156.1 21.3487V29.138H160.161V21.4279C160.125 21.1639 160.146 20.8952 160.224 20.6402C160.302 20.3851 160.434 20.1499 160.612 19.9505C160.789 19.7511 161.008 19.5923 161.253 19.485C161.499 19.3777 161.764 19.3244 162.032 19.3288C163.24 19.3288 163.863 20.0681 163.863 21.3883V29.138H168.15V20.3057C168.193 19.7274 168.113 19.1464 167.915 18.6009C167.717 18.0554 167.406 17.5576 167.001 17.1401C166.597 16.7225 166.108 16.3948 165.567 16.1781C165.027 15.9615 164.446 15.8609 163.863 15.883C162.987 15.8422 162.121 16.0905 161.401 16.5895C160.682 17.0885 160.147 17.8101 159.882 18.6422H159.696C159.544 17.8146 159.087 17.0731 158.415 16.5628C157.743 16.0525 156.903 15.8101 156.06 15.883C155.221 15.866 154.4 16.1263 153.725 16.6232C153.05 17.1201 152.56 17.8255 152.331 18.629H152.238V16.1206Z" fill="#394149"/>
</svg>
