<svg width="157" height="33" viewBox="0 0 157 33" fill="none" xmlns="http://www.w3.org/2000/svg">
<path fill-rule="evenodd" clip-rule="evenodd" d="M7.69832 4.7356C4.50349 7.22013 2.23603 10.6966 1.25698 14.6115H2.84943C5.53579 14.5721 8.16708 15.3709 10.3738 16.8955C10.5011 16.9872 10.6341 17.071 10.7719 17.1463H10.9577C11.0955 17.071 11.2284 16.9872 11.3558 16.8955C13.5821 15.4062 16.204 14.6107 18.8868 14.6107C21.5695 14.6107 24.1915 15.4062 26.4177 16.8955C26.5451 16.9872 26.6781 17.071 26.8159 17.1463H27.0016C27.1394 17.071 27.2724 16.9872 27.3997 16.8955C29.6064 15.3709 32.2377 14.5721 34.9241 14.6115H36.5165C35.5375 10.6966 33.27 7.22013 30.0752 4.7356C26.8804 2.25108 22.9419 0.901367 18.8868 0.901367C14.8317 0.901367 10.8932 2.25108 7.69832 4.7356ZM34.9241 21.9519C33.8883 21.9246 32.8751 22.2559 32.0577 22.8893C30.5447 23.9371 28.7455 24.4987 26.9021 24.4987C25.0587 24.4987 23.2595 23.9371 21.7465 22.8893C20.9301 22.254 19.9162 21.9224 18.8801 21.9519C17.8447 21.9268 16.8322 22.2579 16.0137 22.8893C14.5035 23.9377 12.7063 24.4999 10.8648 24.4999C9.02323 24.4999 7.22603 23.9377 5.71585 22.8893C4.89837 22.2559 3.8852 21.9246 2.84943 21.9519H0.712891V17.714H2.91578C4.76276 17.6777 6.57099 18.2433 8.06472 19.3247C8.89505 19.9337 9.89954 20.2623 10.9311 20.2623C11.9627 20.2623 12.9672 19.9337 13.7975 19.3247C15.3105 18.2769 17.1097 17.7153 18.9531 17.7153C20.7965 17.7153 22.5957 18.2769 24.1087 19.3247C24.939 19.9337 25.9435 20.2623 26.9751 20.2623C28.0067 20.2623 29.0112 19.9337 29.8415 19.3247C31.317 18.257 33.0997 17.6921 34.9241 17.714H37.0606V21.9519H34.9241ZM34.9241 29.53C33.8883 29.5027 32.8751 29.834 32.0577 30.4674C30.5447 31.5152 28.7455 32.0768 26.9021 32.0768C25.0587 32.0768 23.2595 31.5152 21.7465 30.4674C20.9301 29.832 19.9162 29.5005 18.8801 29.53C17.8447 29.5049 16.8322 29.836 16.0137 30.4674C14.5035 31.5158 12.7063 32.078 10.8648 32.078C9.02323 32.078 7.22603 31.5158 5.71585 30.4674C4.89837 29.834 3.8852 29.5027 2.84943 29.53H0.712891V25.2921H2.91578C4.76276 25.2558 6.57099 25.8214 8.06472 26.9028C8.89505 27.5118 9.89954 27.8403 10.9311 27.8403C11.9627 27.8403 12.9672 27.5118 13.7975 26.9028C15.3105 25.855 17.1097 25.2933 18.9531 25.2933C20.7965 25.2933 22.5957 25.855 24.1087 26.9028C24.939 27.5118 25.9435 27.8403 26.9751 27.8403C28.0067 27.8403 29.0112 27.5118 29.8415 26.9028C31.317 25.8351 33.0997 25.2701 34.9241 25.2921H37.0606V29.53H34.9241ZM48.6987 25.6228C49.3449 26.0759 50.1256 26.2991 50.9149 26.2565C51.4291 26.2508 51.9394 26.1662 52.4277 26.0057C52.4769 26.0029 52.525 25.9896 52.5686 25.9667C52.6122 25.9438 52.6504 25.9119 52.6806 25.8731C52.7107 25.8344 52.7322 25.7896 52.7435 25.7419C52.7549 25.6941 52.7558 25.6445 52.7462 25.5964L52.5472 23.9461C52.5339 23.7085 52.3879 23.6293 52.1225 23.6293C51.9325 23.6811 51.7355 23.7034 51.5386 23.6953C51.0741 23.6953 50.8486 23.4445 50.8486 22.9428V11.6549C50.8486 11.404 50.7291 11.272 50.477 11.272H48.2476C48.1955 11.2656 48.1426 11.2711 48.093 11.288C48.0433 11.305 47.9983 11.333 47.9611 11.3699C47.924 11.4069 47.8959 11.4517 47.8788 11.5011C47.8618 11.5505 47.8563 11.6031 47.8627 11.6549V23.8933C47.8505 24.2275 47.9202 24.5596 48.0659 24.8609C48.2115 25.1622 48.4287 25.4237 48.6987 25.6228ZM59.4744 26.2684C60.9275 26.2684 62.3352 25.7647 63.4555 24.8438V24.8306C64.4174 23.8327 64.9545 22.5035 64.9545 21.1208C64.9545 19.7382 64.4174 18.409 63.4555 17.411C62.3331 16.4949 60.9262 15.9943 59.4744 15.9943C58.0226 15.9943 56.6156 16.4949 55.4932 17.411C54.5086 18.3999 53.9562 19.7355 53.9562 21.1274C53.9562 22.5193 54.5086 23.855 55.4932 24.8438C56.6135 25.7647 58.0212 26.2684 59.4744 26.2684ZM59.4876 23.8291C58.7862 23.8291 58.1098 23.5696 57.59 23.1012C57.1194 22.563 56.8603 21.8737 56.8603 21.1604C56.8603 20.4471 57.1194 19.7579 57.59 19.2197C58.1098 18.7512 58.7862 18.4917 59.4876 18.4917C60.1891 18.4917 60.8654 18.7512 61.3853 19.2197C61.8558 19.7579 62.1149 20.4471 62.1149 21.1604C62.1149 21.8737 61.8558 22.563 61.3853 23.1012C60.8654 23.5696 60.1891 23.8291 59.4876 23.8291ZM77.2303 16.3284C77.4824 16.3284 77.6018 16.4604 77.6018 16.7113V26.1773C77.625 26.8162 77.5048 27.4522 77.25 28.0391C76.9953 28.626 76.6122 29.149 76.1288 29.5702C75.0558 30.4805 73.6759 30.9522 72.2671 30.8905C70.9947 30.935 69.7392 30.5893 68.6708 29.9003C68.2146 29.6022 67.8249 29.214 67.5258 28.7598C67.2267 28.3056 67.0248 27.795 66.9324 27.2599C66.9324 26.9958 66.9324 26.877 67.2907 26.877H69.5201C69.6148 26.8802 69.7065 26.9106 69.7842 26.9644C69.8619 27.0183 69.9223 27.0934 69.9581 27.1806C70.1027 27.5816 70.3909 27.9154 70.7676 28.118C71.2266 28.3536 71.7374 28.4716 72.2539 28.4613C72.5654 28.4782 72.8773 28.4333 73.1712 28.329C73.4652 28.2247 73.7353 28.0632 73.9657 27.8539C74.1763 27.635 74.3401 27.3759 74.4473 27.0923C74.5545 26.8087 74.6029 26.5064 74.5895 26.2037V25.3719C73.7912 25.956 72.8197 26.2581 71.8292 26.2301C71.136 26.2552 70.4448 26.1406 69.7971 25.8933C69.1495 25.646 68.5588 25.2711 68.0604 24.791C67.1037 23.8063 66.5689 22.4904 66.5689 21.1208C66.5689 19.7513 67.1037 18.4353 68.0604 17.4506C68.5612 16.9748 69.1526 16.6035 69.7999 16.3586C70.4472 16.1137 71.1371 16.0002 71.8292 16.0248C72.8484 15.998 73.846 16.3195 74.6558 16.9357V16.7245C74.6497 16.6739 74.655 16.6226 74.6713 16.5743C74.6877 16.526 74.7146 16.4819 74.7502 16.4452C74.7857 16.4086 74.8291 16.3803 74.877 16.3623C74.925 16.3444 74.9763 16.3373 75.0274 16.3416L77.2303 16.3284ZM72.0813 23.8801C72.4232 23.8906 72.7633 23.8263 73.0774 23.6917C73.3916 23.5571 73.6722 23.3555 73.8994 23.1012C74.3406 22.5343 74.58 21.8377 74.58 21.1208C74.58 20.4039 74.3406 19.7073 73.8994 19.1405C73.673 18.8896 73.3941 18.691 73.0823 18.5587C72.7705 18.4264 72.4334 18.3636 72.0946 18.3748C71.7488 18.3639 71.4047 18.428 71.0862 18.5625C70.7678 18.697 70.4824 18.8987 70.25 19.1537C69.7613 19.6959 69.5042 20.4063 69.5334 21.134C69.5095 21.8546 69.7608 22.5575 70.2368 23.1012C70.4697 23.3554 70.7551 23.5567 71.0735 23.6911C71.3919 23.8256 71.7356 23.89 72.0813 23.8801ZM85.0731 26.2606C86.5249 26.2606 87.9318 25.76 89.0542 24.8439V24.8307C90.0161 23.8327 90.5532 22.5035 90.5532 21.1209C90.5532 19.7382 90.0161 18.409 89.0542 17.411C87.9307 16.4973 86.5242 15.9982 85.0731 15.9982C83.622 15.9982 82.2155 16.4973 81.092 17.411C80.1292 18.4112 79.5918 19.7426 79.5918 21.1275C79.5918 22.5123 80.1292 23.8437 81.092 24.8439C82.2144 25.76 83.6213 26.2606 85.0731 26.2606ZM84.0578 23.6548C83.7297 23.5301 83.4298 23.342 83.1754 23.1012C82.7126 22.5594 82.4585 21.8715 82.4585 21.1605C82.4585 20.4494 82.7126 19.7616 83.1754 19.2197C83.4298 18.979 83.7297 18.7908 84.0578 18.6662C84.3858 18.5415 84.7354 18.4829 85.0864 18.4936C85.4351 18.4846 85.7823 18.5441 86.1079 18.6687C86.4335 18.7933 86.7312 18.9806 86.984 19.2197C87.4469 19.7616 87.701 20.4494 87.701 21.1605C87.701 21.8715 87.4469 22.5594 86.984 23.1012C86.7312 23.3404 86.4335 23.5276 86.1079 23.6522C85.7823 23.7768 85.4351 23.8363 85.0864 23.8273C84.7354 23.8381 84.3858 23.7794 84.0578 23.6548ZM95.3443 14.0841C94.9936 14.3896 94.5432 14.558 94.077 14.558C93.6108 14.558 93.1605 14.3896 92.8097 14.0841C92.6507 13.9348 92.5239 13.7547 92.4373 13.5549C92.3507 13.3552 92.3061 13.1399 92.3061 12.9223C92.3061 12.7048 92.3507 12.4895 92.4373 12.2897C92.5239 12.0899 92.6507 11.9099 92.8097 11.7605C93.1641 11.4627 93.6131 11.2993 94.077 11.2993C94.541 11.2993 94.9899 11.4627 95.3443 11.7605C95.5034 11.9099 95.6301 12.0899 95.7167 12.2897C95.8033 12.4895 95.848 12.7048 95.848 12.9223C95.848 13.1399 95.8033 13.3552 95.7167 13.5549C95.6301 13.7547 95.5034 13.9348 95.3443 14.0841ZM95.623 26.2566C94.8342 26.295 94.0548 26.0722 93.4069 25.6229C93.141 25.4208 92.9275 25.1584 92.7844 24.8575C92.6413 24.5566 92.5726 24.226 92.5841 23.8934V16.7114C92.5776 16.6595 92.5832 16.607 92.6002 16.5576C92.6173 16.5082 92.6454 16.4634 92.6825 16.4264C92.7197 16.3895 92.7647 16.3615 92.8144 16.3445C92.864 16.3276 92.9169 16.3221 92.9689 16.3285H95.1984C95.4505 16.3285 95.5699 16.4605 95.5699 16.7114V22.9428C95.5699 23.4445 95.7955 23.6953 96.2467 23.6953C96.448 23.7025 96.6492 23.6803 96.8439 23.6293C97.1093 23.6293 97.2553 23.7085 97.2686 23.9462L97.4676 25.5965C97.4772 25.6446 97.4763 25.6942 97.4649 25.7419C97.4536 25.7896 97.4321 25.8344 97.402 25.8732C97.3718 25.912 97.3336 25.9439 97.29 25.9667C97.2464 25.9896 97.1983 26.0029 97.1491 26.0057C96.6565 26.1671 96.1417 26.2517 95.623 26.2566ZM107.712 16.3413C107.06 16.0963 106.365 15.9842 105.669 16.0116C105.061 15.9984 104.457 16.1087 103.893 16.3357C103.33 16.5627 102.818 16.9016 102.391 17.3318C102.168 16.8988 101.821 16.5419 101.393 16.3067C100.965 16.0714 100.476 15.9687 99.989 16.0116C99.5007 16.0027 99.0148 16.0832 98.5558 16.2492C98.4625 16.2762 98.3813 16.3341 98.3258 16.4134C98.2702 16.4927 98.2437 16.5885 98.2506 16.6849V18.2428C98.2506 18.454 98.3966 18.5596 98.6885 18.5596H99.1264C99.2329 18.5441 99.3415 18.5535 99.4436 18.5872C99.5457 18.6208 99.6385 18.6777 99.7146 18.7534C99.7907 18.8291 99.8479 18.9214 99.8817 19.023C99.9155 19.1246 99.925 19.2327 99.9094 19.3385V30.1644C99.8999 30.215 99.9029 30.2671 99.9182 30.3163C99.9335 30.3655 99.9607 30.4102 99.9973 30.4466C100.034 30.483 100.079 30.51 100.128 30.5252C100.178 30.5405 100.23 30.5435 100.281 30.534H102.51C102.763 30.534 102.895 30.4152 102.895 30.1644V25.3984C103.701 25.9772 104.675 26.2785 105.669 26.2565C106.366 26.2844 107.062 26.1713 107.715 25.9239C108.367 25.6766 108.962 25.3002 109.464 24.8175C110.403 23.8155 110.924 22.4969 110.924 21.1274C110.924 19.758 110.403 18.4394 109.464 17.4374C108.96 16.959 108.364 16.5862 107.712 16.3413ZM104.434 23.6767C104.119 23.543 103.835 23.3472 103.599 23.1012C103.119 22.5387 102.868 21.8182 102.895 21.0812C102.864 20.3437 103.116 19.6218 103.599 19.0613C103.835 18.8153 104.119 18.6195 104.434 18.4857C104.749 18.352 105.088 18.283 105.43 18.283C105.772 18.283 106.111 18.352 106.426 18.4857C106.74 18.6195 107.025 18.8153 107.261 19.0613C107.763 19.6121 108.026 20.3384 107.991 21.0812C108.022 21.8234 107.76 22.5481 107.261 23.1012C107.025 23.3472 106.74 23.543 106.426 23.6767C106.111 23.8105 105.772 23.8795 105.43 23.8795C105.088 23.8795 104.749 23.8105 104.434 23.6767ZM117.187 26.2565C115.996 26.3052 114.815 26.0217 113.777 25.4379C113.36 25.1884 113.006 24.8487 112.739 24.4442C112.473 24.0397 112.301 23.5806 112.238 23.1011C112.238 22.8371 112.33 22.7051 112.622 22.7051H114.573C114.666 22.7087 114.756 22.7377 114.833 22.7889C114.911 22.8402 114.972 22.9117 115.011 22.9955C115.29 23.7084 116.02 24.0649 117.187 24.0649C117.595 24.0834 118 24.0018 118.369 23.8273C118.496 23.7702 118.605 23.6799 118.684 23.5659C118.764 23.452 118.81 23.3187 118.82 23.1804C118.82 22.8371 118.607 22.5995 118.183 22.441C117.679 22.2742 117.158 22.1635 116.63 22.111C116.004 22.0405 115.384 21.9303 114.772 21.7809C114.177 21.647 113.637 21.3389 113.22 20.8964C112.974 20.5956 112.793 20.2478 112.688 19.8745C112.584 19.5012 112.557 19.1105 112.611 18.7266C112.664 18.3428 112.797 17.974 113 17.6431C113.202 17.3123 113.472 17.0266 113.79 16.8037C114.747 16.1975 115.869 15.9022 117.002 15.9587C118.098 15.9218 119.183 16.1917 120.133 16.7377C120.516 16.9534 120.846 17.2515 121.099 17.61C121.351 17.9686 121.52 18.3787 121.593 18.8104C121.593 19.0745 121.474 19.2065 121.235 19.2065H119.271C119.188 19.2114 119.106 19.1913 119.035 19.1489C118.964 19.1065 118.907 19.0437 118.873 18.9688C118.742 18.6561 118.494 18.4056 118.183 18.2691C117.831 18.0861 117.438 17.9952 117.041 18.0051C116.652 17.984 116.264 18.0612 115.913 18.2295C115.79 18.277 115.683 18.3602 115.608 18.4684C115.532 18.5767 115.491 18.705 115.489 18.8368C115.497 19.0174 115.564 19.1904 115.678 19.3306C115.793 19.4708 115.95 19.5708 116.126 19.6158C116.635 19.8068 117.165 19.9397 117.705 20.0118C118.326 20.0931 118.941 20.2077 119.55 20.3551C120.144 20.489 120.685 20.7971 121.102 21.2396C121.325 21.4834 121.498 21.7688 121.609 22.0792C121.721 22.3897 121.77 22.7191 121.752 23.0483C121.764 23.5047 121.656 23.9562 121.44 24.3589C121.224 24.7615 120.906 25.1014 120.518 25.3455C119.527 25.9788 118.365 26.2965 117.187 26.2565ZM135.774 25.7373C135.785 25.6912 135.787 25.6433 135.779 25.5964L135.62 23.9462C135.618 23.8944 135.604 23.8437 135.58 23.798C135.555 23.7523 135.52 23.7127 135.478 23.6822C135.436 23.6517 135.388 23.6311 135.336 23.622C135.285 23.6128 135.232 23.6153 135.182 23.6293C134.983 23.681 134.777 23.7032 134.572 23.6953C134.134 23.6953 133.908 23.4445 133.908 22.9296V16.7114C133.908 16.4605 133.789 16.3285 133.537 16.3285H131.281C131.029 16.3285 130.909 16.4605 130.909 16.7114V21.5698C130.923 21.8583 130.877 22.1467 130.774 22.4169C130.672 22.6871 130.514 22.9335 130.312 23.1408C130.098 23.3375 129.848 23.4902 129.574 23.5899C129.301 23.6896 129.01 23.7344 128.72 23.7217C128.435 23.7328 128.152 23.6831 127.889 23.576C127.626 23.469 127.388 23.3071 127.193 23.1012C126.803 22.6518 126.599 22.0711 126.623 21.4774V16.7114C126.623 16.4605 126.503 16.3285 126.251 16.3285H124.022C123.77 16.3285 123.65 16.4605 123.65 16.7114V21.8734C123.622 22.4555 123.712 23.0374 123.915 23.5841C124.118 24.1308 124.429 24.6312 124.831 25.0552C125.236 25.4598 125.721 25.7757 126.256 25.9826C126.791 26.1895 127.363 26.2828 127.937 26.2566C129.171 26.3211 130.383 25.9097 131.321 25.108C131.626 25.5105 132.031 25.8277 132.496 26.0289C132.961 26.2301 133.47 26.3085 133.975 26.2566C134.484 26.2476 134.99 26.1631 135.474 26.0057C135.521 25.9993 135.567 25.9835 135.608 25.9593C135.649 25.9352 135.685 25.9031 135.713 25.8649C135.742 25.8268 135.762 25.7834 135.774 25.7373ZM156.866 25.5964C156.878 25.6437 156.879 25.693 156.87 25.7407C156.86 25.7885 156.84 25.8336 156.811 25.8727C156.781 25.9118 156.744 25.944 156.701 25.967C156.658 25.99 156.61 26.0032 156.561 26.0057C156.068 26.1653 155.553 26.2498 155.035 26.2565C154.246 26.297 153.466 26.074 152.819 25.6228C152.539 25.4295 152.311 25.1706 152.156 24.8689C152.001 24.5672 151.923 24.2321 151.93 23.8933V20.7908C151.957 20.1988 151.758 19.6183 151.372 19.1669C151.186 18.9606 150.956 18.7979 150.699 18.6906C150.442 18.5833 150.164 18.534 149.886 18.5464C149.635 18.537 149.385 18.5844 149.155 18.685C148.925 18.7856 148.721 18.9369 148.559 19.1273C148.209 19.5697 148.03 20.1225 148.055 20.6852V25.5568C148.055 25.8076 147.935 25.9397 147.683 25.9397H145.44C145.388 25.9461 145.335 25.9406 145.286 25.9236C145.236 25.9067 145.191 25.8786 145.154 25.8417C145.117 25.8048 145.089 25.76 145.072 25.7106C145.055 25.6612 145.049 25.6086 145.055 25.5568V20.7908C145.084 20.2052 144.901 19.6289 144.538 19.1669C144.376 18.9729 144.173 18.8167 143.944 18.7094C143.715 18.6022 143.464 18.5465 143.211 18.5464C142.94 18.5355 142.67 18.5817 142.419 18.6818C142.167 18.7819 141.94 18.9337 141.751 19.1273C141.372 19.5556 141.176 20.115 141.207 20.6852V25.5568C141.214 25.6086 141.208 25.6612 141.191 25.7106C141.174 25.76 141.146 25.8048 141.109 25.8417C141.072 25.8786 141.026 25.9067 140.977 25.9236C140.927 25.9406 140.874 25.9461 140.822 25.9397H138.659C138.407 25.9397 138.288 25.8076 138.288 25.5568V19.3385C138.303 19.2327 138.294 19.1246 138.26 19.023C138.226 18.9214 138.169 18.8291 138.093 18.7534C138.017 18.6777 137.924 18.6208 137.822 18.5872C137.72 18.5535 137.611 18.5441 137.505 18.5596H137.067C136.775 18.5596 136.629 18.454 136.629 18.2428V16.6849C136.622 16.5885 136.648 16.4927 136.704 16.4134C136.76 16.3341 136.841 16.2762 136.934 16.2492C137.393 16.0832 137.879 16.0027 138.367 16.0116C138.836 15.9719 139.306 16.0648 139.724 16.2797C140.142 16.4946 140.491 16.8227 140.729 17.2262C141.177 16.804 141.707 16.4783 142.287 16.2693C142.867 16.0603 143.484 15.9726 144.1 16.0116C144.698 15.9825 145.294 16.0941 145.841 16.3373C146.387 16.5804 146.868 16.9483 147.245 17.411C147.684 16.9362 148.224 16.5643 148.825 16.3223C149.427 16.0802 150.074 15.9741 150.722 16.0116C151.301 15.9846 151.88 16.0775 152.421 16.2843C152.962 16.491 153.455 16.8073 153.867 17.213C154.27 17.6361 154.583 18.1363 154.786 18.6832C154.989 19.2302 155.078 19.8124 155.048 20.3947V22.9428C155.048 23.4444 155.274 23.6953 155.698 23.6953C155.904 23.7048 156.11 23.6826 156.309 23.6293C156.583 23.6293 156.729 23.7349 156.747 23.9461L156.866 25.5964Z" fill="#394149"/>
</svg>
