<svg width="171" height="39" viewBox="0 0 171 39" fill="none" xmlns="http://www.w3.org/2000/svg">
<path fill-rule="evenodd" clip-rule="evenodd" d="M18.0126 0.225098V5.83604C14.4007 5.83604 10.9368 7.27567 8.38282 9.83822C5.82885 12.4008 4.39405 15.8763 4.39405 19.5003C4.39405 23.1243 5.82885 26.5999 8.38282 29.1625C10.9368 31.725 14.4007 33.1646 18.0126 33.1646V38.7756H0.380859V0.225098H18.0126ZM45.4733 9.26868H41.5259V28.3459H45.4733V9.26868ZM48.8508 17.956C48.09 19.0966 47.6838 20.4383 47.6838 21.8108C47.6715 22.7211 47.8405 23.6247 48.1808 24.4686C48.5211 25.3125 49.026 26.0797 49.6657 26.7253C50.3054 27.3709 51.0672 27.8818 51.9063 28.2281C52.7454 28.5744 53.645 28.7491 54.5523 28.742C55.9202 28.7498 57.2596 28.35 58.4008 27.5932C59.542 26.8364 60.4335 25.7566 60.9624 24.4908C61.4913 23.225 61.6338 21.8302 61.3717 20.4831C61.1096 19.1359 60.4549 17.8972 59.4904 16.9239C58.5259 15.9506 57.2951 15.2865 55.954 15.0159C54.6129 14.7452 53.2219 14.8801 51.9574 15.4036C50.6928 15.927 49.6116 16.8153 48.8508 17.956ZM57.0351 20.1606C57.374 20.6451 57.5631 21.2191 57.5786 21.8108H57.5523C57.5741 22.2133 57.5129 22.616 57.3725 22.9937C57.2322 23.3714 57.0157 23.716 56.7366 24.0059C56.4575 24.2958 56.1218 24.5249 55.7505 24.6788C55.3792 24.8326 54.9802 24.908 54.5786 24.9001C53.9886 24.8999 53.4118 24.7252 52.9203 24.3978C52.4289 24.0704 52.0445 23.6049 51.8153 23.0595C51.5861 22.5141 51.5222 21.913 51.6317 21.3313C51.7412 20.7497 52.0192 20.2133 52.4309 19.7894C52.8426 19.3654 53.3697 19.0727 53.9464 18.9477C54.5231 18.8228 55.1236 18.8712 55.673 19.087C56.2223 19.3027 56.6961 19.6761 57.0351 20.1606ZM77.0392 15.2756V27.6989C77.0392 32.0821 73.6181 33.9436 70.1576 33.9436C68.937 34.0441 67.7126 33.8008 66.6224 33.241C65.5321 32.6812 64.6192 31.8272 63.9865 30.775L67.3155 28.8475C67.5852 29.3932 68.0143 29.8435 68.5456 30.1383C69.0769 30.4332 69.6851 30.5586 70.2892 30.4978C70.674 30.5454 71.0645 30.507 71.4329 30.3855C71.8012 30.264 72.1383 30.0623 72.4199 29.7949C72.7015 29.5275 72.9207 29.2009 73.0619 28.8386C73.2031 28.4762 73.2627 28.0871 73.2365 27.6989V26.4975C72.7772 27.0563 72.1943 27.5 71.5342 27.7934C70.8742 28.0867 70.155 28.2216 69.4339 28.1874C67.689 28.1874 66.0156 27.4919 64.7818 26.254C63.548 25.016 62.8549 23.337 62.8549 21.5863C62.8549 19.8356 63.548 18.1566 64.7818 16.9186C66.0156 15.6807 67.689 14.9852 69.4339 14.9852C70.155 14.951 70.8742 15.0859 71.5342 15.3792C72.1943 15.6726 72.7772 16.1163 73.2365 16.6751V15.3548L77.0392 15.2756ZM73.2365 21.5467C73.2628 20.9151 73.1001 20.29 72.7695 19.7518C72.4388 19.2137 71.9553 18.7871 71.3811 18.5269C70.8068 18.2667 70.1682 18.1849 69.5472 18.2918C68.9262 18.3987 68.3513 18.6896 67.8964 19.127C67.4415 19.5644 67.1274 20.1284 66.9945 20.7463C66.8616 21.3643 66.916 22.008 67.1506 22.5947C67.3853 23.1814 67.7895 23.6843 68.3113 24.0387C68.8331 24.393 69.4486 24.5826 70.0786 24.5832C70.4898 24.6129 70.9025 24.5558 71.2903 24.4155C71.678 24.2752 72.0321 24.0548 72.3297 23.7687C72.6273 23.4825 72.8618 23.1369 73.018 22.7542C73.1742 22.3714 73.2486 21.9601 73.2365 21.5467ZM80.4281 17.9587C79.6685 19.0988 79.263 20.4394 79.263 21.8108C79.2525 22.7228 79.4235 23.6278 79.7661 24.4726C80.1087 25.3175 80.6159 26.0852 81.2581 26.7308C81.9003 27.3763 82.6645 27.8868 83.5058 28.2321C84.3472 28.5775 85.2488 28.7508 86.1578 28.742C87.5246 28.7446 88.8615 28.3403 89.9992 27.5803C91.137 26.8202 92.0244 25.7387 92.5493 24.4724C93.0741 23.2061 93.2128 21.8121 92.9478 20.4667C92.6827 19.1213 92.0258 17.8851 91.0603 16.9144C90.0947 15.9437 88.8638 15.2823 87.5235 15.0138C86.1831 14.7453 84.7935 14.8818 83.5304 15.406C82.2674 15.9302 81.1878 16.8186 80.4281 17.9587ZM88.6133 20.1593C88.9529 20.644 89.1423 21.2185 89.1578 21.8108H89.1447C89.1665 22.2133 89.1053 22.616 88.9649 22.9937C88.8246 23.3714 88.6081 23.7159 88.329 24.0059C88.0499 24.2958 87.7142 24.5249 87.3429 24.6787C86.9716 24.8326 86.5726 24.908 86.171 24.9001C85.5805 24.9025 85.0024 24.73 84.5092 24.4042C84.016 24.0784 83.6296 23.6138 83.3983 23.0686C83.1671 22.5234 83.1014 21.9219 83.2094 21.3394C83.3175 20.7569 83.5944 20.2194 84.0055 19.7941C84.4167 19.3689 84.9438 19.0748 85.5208 18.9488C86.0978 18.8228 86.699 18.8704 87.2491 19.0858C87.7993 19.3011 88.2738 19.6745 88.6133 20.1593ZM94.8815 11.7771C94.8815 11.3123 95.0189 10.858 95.2762 10.4715C95.5336 10.0851 95.8994 9.78387 96.3274 9.60601C96.7553 9.42814 97.2262 9.38161 97.6806 9.47228C98.1349 9.56295 98.5522 9.78677 98.8798 10.1154C99.2073 10.4441 99.4304 10.8628 99.5207 11.3187C99.6111 11.7745 99.5647 12.247 99.3875 12.6764C99.2102 13.1058 98.91 13.4728 98.5248 13.7311C98.1397 13.9893 97.6869 14.1271 97.2236 14.1271C96.6046 14.1203 96.0128 13.8705 95.5751 13.4312C95.1373 12.992 94.8884 12.3983 94.8815 11.7771ZM95.2631 15.2757H99.2105V28.3459H95.2631V15.2757ZM115.73 24.3691C116.022 23.5495 116.149 22.68 116.105 21.8108C116.144 20.9448 116.013 20.0796 115.718 19.2646C115.424 18.4495 114.972 17.7007 114.39 17.0607C113.807 16.4208 113.104 15.9023 112.322 15.5349C111.539 15.1674 110.692 14.9582 109.829 14.9192C109.094 14.8675 108.358 14.9832 107.674 15.2576C106.991 15.5319 106.378 15.9579 105.882 16.5035V15.2757H101.934V33.6004H105.882V27.1445C106.377 27.6918 106.99 28.1197 107.673 28.3963C108.357 28.6729 109.094 28.791 109.829 28.742C110.696 28.7031 111.546 28.4926 112.331 28.1227C113.116 27.7527 113.821 27.2306 114.404 26.5864C114.987 25.9423 115.438 25.1887 115.73 24.3691ZM111.596 20.1006C111.947 20.6027 112.142 21.1976 112.158 21.8108C112.188 22.2302 112.129 22.6513 111.986 23.0464C111.842 23.4415 111.617 23.8016 111.325 24.1033C111.033 24.405 110.681 24.6413 110.292 24.7969C109.902 24.9524 109.484 25.0236 109.066 25.0057C108.454 25.0081 107.856 24.8294 107.345 24.492C106.835 24.1546 106.435 23.6735 106.196 23.1091C105.957 22.5446 105.889 21.9218 106.001 21.3188C106.113 20.7159 106.4 20.1595 106.826 19.7194C107.252 19.2794 107.798 18.9753 108.395 18.8452C108.992 18.7151 109.615 18.7648 110.184 18.9881C110.754 19.2115 111.245 19.5984 111.596 20.1006ZM128.119 24.4248C128.119 27.4349 125.487 28.7155 122.697 28.7155C121.56 28.8183 120.417 28.5763 119.418 28.0209C118.419 27.4654 117.609 26.6221 117.092 25.5998L120.487 23.6723C120.621 24.1434 120.913 24.5538 121.313 24.835C121.713 25.1162 122.197 25.251 122.684 25.2169C123.619 25.2169 124.092 24.9265 124.092 24.3984C124.092 23.8796 123.259 23.6474 122.194 23.3503C120.305 22.8234 117.684 22.0926 117.684 19.1967C117.684 16.345 120.079 14.9192 122.79 14.9192C123.82 14.8729 124.843 15.1074 125.752 15.5979C126.66 16.0884 127.419 16.8165 127.948 17.7049L124.553 19.5004C124.403 19.1598 124.158 18.87 123.847 18.6662C123.537 18.4624 123.174 18.3532 122.803 18.3518C122.119 18.3518 121.711 18.6158 121.711 19.0779C121.711 19.617 122.533 19.8359 123.588 20.117C125.479 20.6206 128.119 21.3236 128.119 24.4248ZM142.421 28.3458V15.2756H138.526V22.4708C138.526 24.2663 137.526 25.1113 136.105 25.1113C135.794 25.13 135.481 25.0806 135.191 24.9665C134.9 24.8524 134.637 24.6763 134.42 24.4503C134.204 24.2244 134.039 23.954 133.937 23.6578C133.835 23.3616 133.798 23.0467 133.829 22.7349V15.2756H129.882V23.329C129.882 26.854 132.132 28.7419 134.763 28.7419C135.465 28.7819 136.167 28.6558 136.811 28.3737C137.456 28.0916 138.025 27.6615 138.474 27.118V28.3458H142.421ZM164.79 20.3189V28.3459H160.842V20.6622C160.842 19.3419 160.224 18.5234 158.974 18.5234C157.724 18.5234 156.935 19.4344 156.935 20.979V28.3459H152.987V20.6622C152.987 19.3419 152.369 18.5234 151.119 18.5234C149.869 18.5234 149.079 19.4344 149.079 20.979V28.3459H145.132V15.2757H149.079V16.4771C149.488 15.9463 150.022 15.5259 150.633 15.254C151.244 14.982 151.913 14.8669 152.579 14.9192C153.247 14.8843 153.912 15.0241 154.509 15.325C155.107 15.6259 155.616 16.0775 155.987 16.6355C156.421 16.0525 156.995 15.5893 157.655 15.2892C158.315 14.9891 159.041 14.8618 159.764 14.9192C162.842 14.9192 164.79 17.058 164.79 20.3189ZM18.0126 5.83508V33.1637C21.6244 33.1637 25.0883 31.7241 27.6423 29.1615C30.1963 26.5989 31.6311 23.1234 31.6311 19.4994C31.6311 15.8754 30.1963 12.3998 27.6423 9.83726C25.0883 7.27471 21.6244 5.83508 18.0126 5.83508ZM171 12.2914C171 13.8953 169.704 15.1954 168.106 15.1954C166.507 15.1954 165.211 13.8953 165.211 12.2914C165.211 10.6876 166.507 9.38745 168.106 9.38745C169.704 9.38745 171 10.6876 171 12.2914Z" fill="#394149"/>
</svg>
