<svg width="158" height="37" viewBox="0 0 158 37" fill="none" xmlns="http://www.w3.org/2000/svg">
<path fill-rule="evenodd" clip-rule="evenodd" d="M32.0044 7.14607C33.0893 8.42924 33.9832 9.86092 34.6585 11.3972C35.6422 13.6371 36.1483 16.0556 36.1448 18.5C36.1413 23.2388 34.2493 27.7829 30.8837 31.1362C27.518 34.4896 22.9532 36.3785 18.1899 36.389C15.8823 36.3877 13.597 35.9393 11.4618 35.0688C9.93881 34.4667 8.50912 33.6533 7.21525 32.6528C5.19878 31.1239 3.53062 29.1875 2.32057 26.9711C1.11052 24.7546 0.386014 22.3084 0.194732 19.7933C0.00344971 17.2782 0.349733 14.7514 1.21079 12.379C2.07184 10.0067 3.42814 7.84262 5.19043 6.02933C6.95271 4.21604 9.08102 2.7946 11.4353 1.85857C13.7895 0.922538 16.3164 0.493144 18.8494 0.59864C21.3825 0.704137 23.8644 1.34213 26.1318 2.47064C28.3992 3.59915 30.4006 5.19259 32.0044 7.14607ZM24.1749 5.5486C22.2961 4.67875 20.2489 4.22815 18.1766 4.22837L18.1899 4.20197C15.7722 4.20018 13.3934 4.80687 11.2748 5.96559C9.15614 7.12431 7.36658 8.7974 6.07262 10.8292C4.77866 12.8609 4.02237 15.1853 3.87411 17.586C3.72586 19.9867 4.19045 22.3857 5.22468 24.5598C5.8241 23.9333 6.19348 23.1239 6.27305 22.2626C6.50806 20.6474 7.2618 19.1512 8.42176 17.9972C9.58172 16.8432 11.0857 16.0933 12.7092 15.8595C13.6218 15.7772 14.4779 15.3842 15.1331 14.7468C15.7882 14.1095 16.2023 13.2668 16.3055 12.3609C16.5405 10.7458 17.2942 9.24953 18.4542 8.09553C19.6142 6.94153 21.1181 6.19167 22.7417 5.95787C23.235 5.88308 23.7167 5.74553 24.1749 5.5486ZM7.36122 27.5992C7.30814 27.6462 7.25506 27.6931 7.20198 27.7415C8.23055 28.9392 9.44998 29.9606 10.8115 30.7648C11.1676 30.2209 11.3904 29.6014 11.4618 28.9561C11.705 27.3377 12.4666 25.8405 13.6332 24.687C14.7999 23.5334 16.3095 22.7851 17.9378 22.5531C18.8517 22.4634 19.7063 22.0622 20.3569 21.4173C21.0075 20.7725 21.414 19.9237 21.5075 19.0149C21.7384 17.398 22.4908 15.8995 23.6515 14.7448C24.8122 13.59 26.3185 12.8415 27.9437 12.6118C28.859 12.5257 29.7122 12.113 30.3456 11.45C30.4098 11.3949 30.4677 11.333 30.5181 11.2652C29.6971 9.86955 28.6372 8.62745 27.3863 7.59494C26.2877 8.61906 24.8967 9.2787 23.4052 9.48286C22.4894 9.54505 21.627 9.93418 20.9767 10.5786C20.291 11.2478 19.8796 12.1464 19.8222 13.1003C19.5871 14.7154 18.8334 16.2117 17.6735 17.3657C16.5135 18.5197 15.0095 19.2695 13.386 19.5033C12.473 19.5777 11.6187 19.9815 10.984 20.6387C10.3245 21.2778 9.91523 22.1296 9.82952 23.0415C9.61814 24.6639 8.86032 26.1671 7.67971 27.3059C7.57355 27.4115 7.46739 27.5054 7.36122 27.5992ZM14.1955 32.2831C15.4899 32.6524 16.83 32.839 18.1766 32.8376V32.7716C20.3697 32.7631 22.5316 32.255 24.4966 31.2862C26.4616 30.3174 28.1774 28.9137 29.5124 27.1828C30.8474 25.4518 31.7662 23.4397 32.1981 21.3006C32.6301 19.1616 32.5638 16.9526 32.0044 14.843C30.9969 15.5516 29.8308 16.0048 28.6072 16.1632C27.6957 16.2557 26.8441 16.6582 26.1962 17.3028C25.5483 17.9473 25.1437 18.7945 25.0507 19.7014C24.815 21.3185 24.0593 22.8161 22.8967 23.9704C21.7342 25.1246 20.2272 25.8733 18.6013 26.1045C17.6897 26.197 16.8382 26.5995 16.1903 27.244C15.5424 27.8886 15.1378 28.7358 15.0448 29.6426C14.9261 30.567 14.6383 31.4619 14.1955 32.2831ZM49.7736 10.6714H45.7924V26.6857H49.7736V10.6714ZM57.5633 14.3152C53.7945 14.3152 51.3528 16.6784 51.3528 20.6391C51.3528 24.6658 53.7414 26.9762 57.5633 26.9762C61.3852 26.9762 63.7739 24.5998 63.7739 20.6391C63.7739 16.6784 61.3321 14.3152 57.5633 14.3152ZM57.5633 17.1801C58.9169 17.1801 59.7795 18.4607 59.7795 20.6391V20.6523C59.7795 22.8571 58.9302 24.0717 57.5633 24.0717C56.1965 24.0717 55.3604 22.7778 55.3604 20.6391C55.3604 18.5003 56.2097 17.1801 57.5633 17.1801ZM69.0953 27.4646H65.2734V27.4778C65.499 29.6694 67.6887 31.2405 71.2053 31.2405C74.9874 31.2405 77.5486 29.445 77.5486 26.5537V14.5397H73.5675V16.7444C73.2678 16.0319 72.7564 15.4275 72.1018 15.0122C71.4472 14.5969 70.6806 14.3906 69.9048 14.4208C66.8526 14.4208 65.0213 16.8104 65.0213 20.5995C65.0213 24.3885 66.9455 26.5933 69.8517 26.5933C70.604 26.6339 71.3512 26.4494 71.9969 26.0635C72.6427 25.6775 73.1574 25.1079 73.4746 24.4281H73.5542V26.6461C73.5542 27.8343 72.758 28.6528 71.2451 28.6528C70.806 28.7116 70.3595 28.6277 69.9721 28.4136C69.5847 28.1995 69.2772 27.8667 69.0953 27.4646ZM71.2717 17.4838C72.6783 17.4838 73.5675 18.6984 73.5675 20.6259V20.6391C73.5675 22.593 72.6916 23.6624 71.2717 23.6624C69.8517 23.6624 69.0024 22.5666 69.0024 20.6259C69.0024 18.6852 69.865 17.4838 71.2717 17.4838ZM85.2587 14.302C81.4899 14.302 79.0482 16.6652 79.0482 20.6259V20.6391C79.0482 24.6658 81.4236 26.963 85.2587 26.963C89.0939 26.963 91.4826 24.5866 91.4826 20.6259C91.4826 16.6652 89.0275 14.302 85.2587 14.302ZM85.2587 17.1669C86.6123 17.1669 87.4749 18.4475 87.4749 20.6259V20.6523C87.4749 22.8571 86.6654 24.0849 85.3118 24.0849C83.9582 24.0849 83.1222 22.8043 83.1222 20.6523C83.1222 18.5003 83.9051 17.1669 85.2587 17.1669ZM93.309 10.5296C93.0941 10.8677 92.9849 11.2617 92.9954 11.6616V11.688C92.9929 11.9537 93.0457 12.2171 93.1505 12.4616C93.2552 12.706 93.4096 12.9263 93.604 13.1086C93.7985 13.2908 94.0287 13.4311 94.2802 13.5206C94.5317 13.6101 94.7991 13.6469 95.0656 13.6287C95.4676 13.6207 95.8581 13.4942 96.1878 13.2651C96.5174 13.036 96.7712 12.7147 96.9171 12.342C97.063 11.9692 97.0943 11.5617 97.0071 11.1712C96.92 10.7807 96.7182 10.4248 96.4274 10.1485C96.1367 9.87217 95.77 9.68799 95.3739 9.61927C94.9778 9.55054 94.5701 9.60038 94.2025 9.76245C93.8348 9.92452 93.5239 10.1915 93.309 10.5296ZM96.9765 14.5661H92.9954V26.6857H96.9765V14.5661ZM106.637 26.8441C109.663 26.8441 111.428 24.5866 111.428 20.6259L111.481 20.6523C111.481 16.6916 109.663 14.4208 106.611 14.368C105.829 14.3333 105.056 14.539 104.396 14.9571C103.735 15.3752 103.221 15.9855 102.922 16.7048H102.842V14.5397H98.8609V30.5672H102.842V24.5998H102.922C103.235 25.3074 103.76 25.9022 104.425 26.3036C105.089 26.705 105.862 26.8937 106.637 26.8441ZM105.164 17.4706C106.558 17.4706 107.447 18.6984 107.447 20.6259V20.6523C107.447 22.5666 106.558 23.768 105.164 23.768C103.771 23.768 102.855 22.5402 102.869 20.6259C102.882 18.7116 103.771 17.4706 105.164 17.4706ZM123.663 18.3419C123.57 15.8467 121.567 14.2888 118.262 14.2888V14.3152C114.971 14.3152 112.835 15.8599 112.808 18.2363C112.808 20.0846 114.056 21.3388 116.431 21.8273L118.727 22.3158C119.682 22.5138 120.054 22.6458 120.054 23.2795C120.054 23.9132 119.523 24.2961 118.355 24.2961C117.187 24.2961 116.471 23.768 116.351 22.8703H112.516C112.689 25.3391 114.905 26.9498 118.289 26.9498C121.673 26.9498 123.969 25.3391 123.969 22.8307C123.969 20.9956 122.933 20.0186 120.505 19.5037L117.957 18.9888C117.068 18.804 116.63 18.6059 116.63 17.9854C116.63 17.3649 117.121 16.9425 118.222 16.9425C119.324 16.9425 120.041 17.4838 120.041 18.3419H123.663ZM133.417 26.6593H137.252L137.305 14.5397H133.324V21.3784C133.362 21.6639 133.338 21.954 133.254 22.2295C133.17 22.505 133.028 22.7594 132.837 22.9757C132.646 23.192 132.41 23.3652 132.146 23.4836C131.883 23.602 131.597 23.663 131.307 23.6624C130.073 23.6624 129.33 22.8967 129.33 21.4576V14.5397H125.349V22.3686C125.298 22.9692 125.378 23.5736 125.583 24.1409C125.787 24.7082 126.112 25.2252 126.535 25.657C126.957 26.0888 127.468 26.4253 128.033 26.6437C128.598 26.8622 129.203 26.9576 129.808 26.9233C130.597 26.9669 131.377 26.7405 132.02 26.2818C132.662 25.8231 133.127 25.1597 133.337 24.4017H133.417V26.6593ZM143.025 14.5397H139.176L139.11 26.6857H143.091V19.5433C143.061 19.295 143.084 19.0432 143.159 18.8044C143.234 18.5657 143.359 18.3455 143.526 18.1584C143.693 17.9713 143.898 17.8214 144.127 17.7188C144.356 17.6162 144.605 17.5631 144.856 17.563C145.944 17.563 146.542 18.2231 146.542 19.4377V26.6857H150.324V19.5169C150.291 19.2717 150.312 19.0224 150.385 18.786C150.458 18.5495 150.581 18.3313 150.746 18.1461C150.91 17.9609 151.113 17.813 151.34 17.7124C151.567 17.6119 151.813 17.5609 152.062 17.563C153.177 17.563 153.774 18.1703 153.774 19.4905V26.6857H157.755V18.4343C157.794 17.8968 157.72 17.3571 157.536 16.8502C157.352 16.3433 157.063 15.8806 156.687 15.4921C156.312 15.1036 155.858 14.7981 155.356 14.5953C154.855 14.3926 154.315 14.2971 153.774 14.3152C152.944 14.2798 152.126 14.52 151.448 14.998C150.771 15.4761 150.272 16.1648 150.032 16.9557H149.952C149.825 16.1731 149.406 15.467 148.779 14.9777C148.152 14.4885 147.362 14.2519 146.568 14.3152C145.787 14.3009 145.024 14.5445 144.397 15.0079C143.77 15.4714 143.316 16.1285 143.105 16.8765H143.025V14.5397Z" fill="#394149"/>
</svg>
