<svg width="40" height="55" viewBox="0 0 40 55" fill="none" xmlns="http://www.w3.org/2000/svg">
<path d="M32.0659 35.6828V52.8979C32.066 53.1195 32.0081 53.3372 31.8983 53.5286C31.7884 53.7201 31.6305 53.8786 31.4407 53.9879C31.2508 54.0971 31.0358 54.1533 30.8177 54.1506C30.5995 54.1479 30.3859 54.0865 30.1987 53.9726L19.7329 47.5946L9.26705 53.9726C9.07969 54.0866 8.86588 54.148 8.64747 54.1506C8.42907 54.1532 8.21391 54.0968 8.02399 53.9873C7.83407 53.8777 7.67621 53.7189 7.56654 53.527C7.45688 53.3352 7.39935 53.1172 7.39983 52.8954V35.6853C4.2084 33.0902 1.8894 29.5525 0.763315 25.561C-0.362775 21.5695 -0.240356 17.3213 1.11365 13.4035C2.46766 9.48573 4.98641 6.09179 8.32181 3.69072C11.6572 1.28965 15.6446 0 19.7329 0C23.8212 0 27.8085 1.28965 31.1439 3.69072C34.4793 6.09179 36.9981 9.48573 38.3521 13.4035C39.7061 17.3213 39.8285 21.5695 38.7024 25.561C37.5763 29.5525 35.2573 33.0902 32.0659 35.6853V35.6828ZM19.7329 35.069C23.658 35.069 27.4223 33.4854 30.1978 30.6666C32.9733 27.8478 34.5325 24.0247 34.5325 20.0384C34.5325 16.052 32.9733 12.2289 30.1978 9.41008C27.4223 6.59129 23.658 5.00771 19.7329 5.00771C15.8078 5.00771 12.0434 6.59129 9.26794 9.41008C6.49246 12.2289 4.93322 16.052 4.93322 20.0384C4.93322 24.0247 6.49246 27.8478 9.26794 30.6666C12.0434 33.4854 15.8078 35.069 19.7329 35.069ZM19.7329 30.0588C17.1161 30.0588 14.6066 29.0031 12.7563 27.1239C10.9059 25.2447 9.86644 22.6959 9.86644 20.0384C9.86644 17.3808 10.9059 14.832 12.7563 12.9528C14.6066 11.0736 17.1161 10.0179 19.7329 10.0179C22.3496 10.0179 24.8592 11.0736 26.7095 12.9528C28.5598 14.832 29.5993 17.3808 29.5993 20.0384C29.5993 22.6959 28.5598 25.2447 26.7095 27.1239C24.8592 29.0031 22.3496 30.0588 19.7329 30.0588Z" fill="#232ED1"/>
</svg>
