<svg width="165" height="39" viewBox="0 0 165 39" fill="none" xmlns="http://www.w3.org/2000/svg">
<path fill-rule="evenodd" clip-rule="evenodd" d="M11.8315 33.7322V24.1869C11.4147 24.5008 10.9021 24.6638 10.3788 24.649C9.89886 24.6373 9.43393 24.4807 9.04618 24.2002V33.7322C9.04618 34.0981 9.19291 34.449 9.45407 34.7077C9.71525 34.9664 10.0695 35.1118 10.4388 35.1118C10.8082 35.1118 11.1624 34.9664 11.4236 34.7077C11.6847 34.449 11.8315 34.0981 11.8315 33.7322ZM22.7499 21.8144C22.9998 21.5668 23.3388 21.4277 23.6922 21.4277C23.8828 21.4103 24.0749 21.4339 24.2554 21.4967C24.436 21.5594 24.6008 21.66 24.7387 21.7916C24.8765 21.9231 24.9841 22.0825 25.0542 22.2589C25.1243 22.4353 25.1552 22.6246 25.1448 22.8139V24.4114C25.1448 24.7773 24.9981 25.1282 24.7369 25.3869C24.4757 25.6457 24.1215 25.791 23.7522 25.791C23.3828 25.791 23.0286 25.6457 22.7674 25.3869C22.5063 25.1282 22.3595 24.7773 22.3595 24.4114V22.7479C22.3595 22.3978 22.4999 22.062 22.7499 21.8144ZM4.68836 27.3555C5.07727 27.6338 5.54149 27.7901 6.02102 27.8044C6.53832 27.8343 7.05178 27.7002 7.48696 27.4215V36.9271C7.48696 37.2947 7.33953 37.6473 7.07711 37.9073C6.81469 38.1673 6.45877 38.3133 6.08766 38.3133C5.71654 38.3133 5.36062 38.1673 5.0982 37.9073C4.83578 37.6473 4.68836 37.2947 4.68836 36.9271V27.3555ZM18.8172 18.6437C18.9867 18.5814 19.1672 18.5538 19.3477 18.5628L19.2811 18.5892C19.4727 18.5698 19.6663 18.5918 19.8485 18.6537C20.0307 18.7156 20.1972 18.8159 20.3365 18.9476C20.4759 19.0794 20.5847 19.2395 20.6556 19.4169C20.7264 19.5944 20.7576 19.7849 20.747 19.9754V27.2367C20.747 27.6043 20.5996 27.9569 20.3372 28.2169C20.0747 28.4768 19.7188 28.6229 19.3477 28.6229C18.9766 28.6229 18.6207 28.4768 18.3582 28.2169C18.0958 27.9569 17.9484 27.6043 17.9484 27.2367V19.883C17.9482 19.704 17.9847 19.5267 18.0558 19.3621C18.1269 19.1974 18.2311 19.0488 18.362 18.9253C18.4929 18.8018 18.6478 18.706 18.8172 18.6437ZM13.5239 20.9392C13.9326 21.2279 14.4213 21.3847 14.9232 21.3881L14.8566 21.4145C15.3836 21.4271 15.8998 21.2644 16.3225 20.9524V30.5372C16.3225 30.9049 16.1751 31.2575 15.9127 31.5174C15.6503 31.7774 15.2944 31.9234 14.9232 31.9234C14.5521 31.9234 14.1962 31.7774 13.9338 31.5174C13.6714 31.2575 13.5239 30.9049 13.5239 30.5372V20.9392ZM2.99587 1.928V28.7417C2.99587 29.0708 2.86389 29.3865 2.62896 29.6192C2.39403 29.852 2.0754 29.9827 1.74316 29.9827H1.44997C1.11774 29.9827 0.799104 29.852 0.564176 29.6192C0.329248 29.3865 0.197266 29.0708 0.197266 28.7417V1.928C0.200776 1.60116 0.334306 1.28889 0.568855 1.059C0.803404 0.829116 1.12003 0.700177 1.44997 0.700195H1.74316C2.0731 0.700177 2.38973 0.829116 2.62428 1.059C2.85883 1.28889 2.99236 1.60116 2.99587 1.928ZM5.87443 26.7878H6.16762V26.8142C6.49986 26.8142 6.81849 26.6834 7.05341 26.4507C7.28834 26.218 7.42033 25.9023 7.42033 25.5732V5.12294C7.41682 4.7961 7.28329 4.48382 7.04874 4.25394C6.81419 4.02405 6.49756 3.89512 6.16762 3.89514H5.87443C5.54449 3.89512 5.22786 4.02405 4.99331 4.25394C4.75876 4.48382 4.62523 4.7961 4.62172 5.12294V25.5468C4.62172 25.8759 4.7537 26.1916 4.98863 26.4243C5.22356 26.657 5.54219 26.7878 5.87443 26.7878ZM10.2722 23.6457H10.5787C10.9075 23.6457 11.2227 23.5163 11.4551 23.286C11.6875 23.0558 11.8181 22.7435 11.8181 22.4178V8.29147C11.8181 7.96461 11.688 7.65094 11.4559 7.41858C11.2239 7.18623 10.9087 7.05394 10.5787 7.05047H10.2722C10.1083 7.05046 9.94609 7.08264 9.79484 7.14517C9.6436 7.2077 9.50638 7.29932 9.39111 7.41474C9.27585 7.53015 9.18484 7.66706 9.12334 7.81756C9.06185 7.96805 9.03109 8.12913 9.03285 8.29147V22.4178C9.03285 22.7435 9.16343 23.0558 9.39586 23.286C9.62829 23.5163 9.94353 23.6457 10.2722 23.6457ZM14.71 20.4111H14.9899H15.0032C15.1688 20.4111 15.3328 20.3786 15.4857 20.3154C15.6386 20.2522 15.7772 20.1596 15.8937 20.043C16.0102 19.9263 16.1022 19.788 16.1644 19.6359C16.2266 19.4838 16.2577 19.321 16.2559 19.1569V11.4996C16.2559 11.1705 16.1239 10.8548 15.889 10.6221C15.6541 10.3894 15.3354 10.2586 15.0032 10.2586H14.71C14.5386 10.2583 14.3689 10.2928 14.2114 10.36C14.054 10.4273 13.9121 10.5259 13.7947 10.6496C13.6773 10.7734 13.5867 10.9197 13.5287 11.0796C13.4707 11.2394 13.4464 11.4093 13.4573 11.5788V19.1833C13.4608 19.5101 13.5943 19.8224 13.8289 20.0523C14.0634 20.2822 14.3801 20.4111 14.71 20.4111ZM19.1211 17.5726H19.4143H19.4277C19.7576 17.5692 20.0728 17.4369 20.3049 17.2045C20.5369 16.9722 20.6671 16.6585 20.667 16.3316V14.3645C20.6635 14.0377 20.53 13.7254 20.2955 13.4955C20.0609 13.2656 19.7443 13.1367 19.4143 13.1367H19.1211C18.7912 13.1367 18.4746 13.2656 18.24 13.4955C18.0055 13.7254 17.872 14.0377 17.8684 14.3645V16.3316C17.8684 16.6608 18.0004 16.9764 18.2353 17.2092C18.4703 17.4419 18.7889 17.5726 19.1211 17.5726ZM73.5073 19.8435C74.027 19.8435 74.147 20.0152 74.147 20.4772V22.9857C74.1611 23.5765 74.0415 24.163 73.7971 24.7021C73.5527 25.2413 73.1896 25.7194 72.7344 26.1014C71.6038 26.9932 70.1784 27.4357 68.7364 27.3424C65.2847 27.3424 63.4057 25.5073 63.4057 22.4576V18.3649C63.4057 15.3548 65.3514 13.5065 68.7364 13.5065C71.4017 13.5065 73.1342 14.5494 73.8671 16.6354C73.9081 16.7138 73.9301 16.8005 73.9313 16.8888C73.9326 16.9771 73.913 17.0644 73.8742 17.1439C73.8354 17.2233 73.7784 17.2927 73.7078 17.3466C73.6371 17.4004 73.5548 17.4371 73.4673 17.4539L72.4278 17.8104C71.9747 17.9688 71.7882 17.8764 71.6282 17.4143C71.4075 16.8504 71.0033 16.3755 70.4795 16.0647C69.9558 15.7538 69.3424 15.6248 68.7364 15.698C66.7773 15.698 65.7112 16.6354 65.7112 18.3385V22.5368C65.7112 24.2663 66.7907 25.1772 68.7364 25.1772C70.682 25.1772 71.8814 24.2927 71.8814 22.9989V22.0219H68.9896C68.5098 22.0219 68.3365 21.8371 68.3365 21.375V20.4772C68.3365 20.0152 68.5098 19.8435 68.9896 19.8435H73.5073ZM52.3045 13.5592C48.9195 13.5592 46.9739 15.3943 46.9739 18.444V22.5103C46.9739 25.56 48.9329 27.3951 52.3045 27.3951C55.6762 27.3951 57.6352 25.56 57.6352 22.5103V18.444C57.6352 15.3943 55.6895 13.5592 52.3045 13.5592ZM52.3712 15.8036C54.3169 15.8036 55.3963 16.7277 55.3963 18.444V22.5367C55.3963 24.2266 54.3169 25.1772 52.3712 25.1772C50.4255 25.1772 49.3593 24.2662 49.3593 22.5367V18.444C49.3593 16.7409 50.4255 15.8036 52.3712 15.8036ZM36.1793 14.4703C36.1793 14.0082 36.0194 13.8365 35.5396 13.8365H34.4601C33.9937 13.8365 33.8071 14.0082 33.8071 14.4703V26.4843C33.8071 26.9463 33.9937 27.118 34.4601 27.118H41.6032C42.0697 27.118 42.2429 26.9463 42.2429 26.4843V25.5601C42.2429 25.098 42.0697 24.9264 41.6032 24.9264H36.1793V14.4703ZM84.9815 13.5592C81.5965 13.5592 79.6508 15.3943 79.6508 18.444V22.5103C79.6508 25.56 81.6099 27.3951 84.9815 27.3951C88.3532 27.3951 90.3122 25.56 90.3122 22.5103V18.444C90.3122 15.3943 88.3665 13.5592 84.9815 13.5592ZM85.0481 15.8036C86.9805 15.8036 88.06 16.7277 88.06 18.444V22.5367C88.06 24.2266 86.9938 25.1772 85.0481 25.1772C83.1024 25.1772 82.023 24.2662 82.023 22.5367V18.444C82.023 16.7409 83.1158 15.8036 85.0481 15.8036ZM96.5891 14.2194C96.5891 13.929 96.6824 13.8365 96.9757 13.8365H97.5889C97.8822 13.8365 97.9489 13.929 97.9489 14.2194V26.7351C97.9489 27.0256 97.9489 27.118 97.5889 27.118H96.9757C96.6824 27.118 96.5891 27.0256 96.5891 26.7351V14.2194ZM113.048 15.0507C112.263 14.2733 111.199 13.8365 110.089 13.8365H105.118C104.838 13.8365 104.732 13.929 104.732 14.2194V26.7351C104.732 27.0256 104.838 27.118 105.118 27.118H105.744C106.024 27.118 106.091 27.0256 106.091 26.7351V22.1275H110.089C111.199 22.1275 112.263 21.6908 113.048 20.9133C113.833 20.1359 114.274 19.0815 114.274 17.982C114.274 16.8826 113.833 15.8282 113.048 15.0507ZM111.081 20.6014C110.728 20.7461 110.351 20.8205 109.969 20.8205H105.971V15.0644H109.969C110.351 15.0644 110.728 15.1388 111.081 15.2834C111.433 15.4281 111.754 15.6401 112.023 15.9073C112.293 16.1746 112.507 16.4919 112.653 16.841C112.799 17.1902 112.874 17.5645 112.874 17.9424C112.874 18.3204 112.799 18.6946 112.653 19.0438C112.507 19.393 112.293 19.7103 112.023 19.9775C111.754 20.2448 111.433 20.4568 111.081 20.6014ZM124.682 13.5725C125.711 13.46 126.749 13.6793 127.642 14.1978C128.535 14.7163 129.235 15.5063 129.639 16.4506C129.746 16.6618 129.639 16.8334 129.426 16.939L128.84 17.2031C128.6 17.2955 128.506 17.2823 128.36 17.0315C128.058 16.3307 127.539 15.7432 126.878 15.3539C126.216 14.9647 125.447 14.7939 124.682 14.8663C122.429 14.8663 121.203 15.7508 121.203 17.3351C121.19 17.8193 121.354 18.2918 121.666 18.6655C121.977 19.0392 122.414 19.2888 122.896 19.3683C123.613 19.5998 124.356 19.7417 125.108 19.7907C126.019 19.8388 126.917 20.0213 127.773 20.332C128.43 20.5378 128.995 20.9611 129.374 21.5309C129.752 22.1007 129.921 22.7822 129.852 23.4609C129.852 25.9298 128.04 27.4216 124.708 27.4216C123.616 27.5455 122.513 27.2946 121.584 26.7108C120.655 26.1271 119.957 25.2457 119.604 24.2135C119.581 24.1664 119.568 24.1148 119.567 24.0623C119.566 24.0098 119.577 23.9577 119.598 23.9098C119.62 23.8618 119.652 23.8192 119.692 23.785C119.732 23.7508 119.78 23.7258 119.831 23.7118L120.417 23.5005C120.463 23.4819 120.513 23.4729 120.563 23.4742C120.613 23.4755 120.662 23.4871 120.707 23.5082C120.752 23.5293 120.792 23.5595 120.825 23.5968C120.858 23.6341 120.882 23.6778 120.897 23.725C121.195 24.4708 121.725 25.1032 122.41 25.5305C123.096 25.9578 123.901 26.1577 124.708 26.1014C127.227 26.1014 128.466 25.23 128.466 23.4609C128.49 22.9959 128.346 22.5377 128.061 22.1678C127.775 21.798 127.366 21.5404 126.907 21.441C126.218 21.2372 125.507 21.1132 124.788 21.0713L123.349 20.8865C122.899 20.7918 122.454 20.6728 122.016 20.53C121.584 20.4008 121.182 20.1901 120.83 19.9095C120.477 19.5924 120.198 19.2021 120.014 18.7663C119.83 18.3306 119.744 17.86 119.764 17.3879C119.857 15.0775 121.603 13.5725 124.682 13.5725ZM138.194 25.0547C137.506 24.4135 137.092 23.5364 137.036 22.6028V14.2194C137.036 13.929 136.942 13.8365 136.662 13.8365H136.036C135.756 13.8365 135.663 13.929 135.663 14.2194V22.5896C135.663 25.5865 137.449 27.3952 140.74 27.3952C144.032 27.3952 145.818 25.5865 145.818 22.5896V14.2194C145.818 13.929 145.725 13.8365 145.431 13.8365H144.818C144.525 13.8365 144.432 13.929 144.432 14.2194V22.6028C144.375 23.5364 143.961 24.4135 143.274 25.0547C142.586 25.6959 141.678 26.053 140.734 26.053C139.79 26.053 138.881 25.6959 138.194 25.0547ZM164.209 13.8365C164.502 13.8365 164.595 13.9289 164.595 14.2194V26.7351C164.595 27.0255 164.502 27.1179 164.209 27.1179H163.649C163.369 27.1179 163.276 27.0255 163.276 26.7351V19.1174C163.275 18.009 163.351 16.9019 163.502 15.8036H163.422C163.006 16.8079 162.521 17.7828 161.97 18.7213L159.104 23.725C159.069 23.8118 159.009 23.886 158.93 23.9379C158.852 23.9897 158.759 24.0168 158.665 24.0154H158.291C158.196 24.0159 158.102 23.9886 158.021 23.9371C157.941 23.8855 157.877 23.8118 157.838 23.725L154.933 18.6685C154.417 17.7434 153.972 16.7813 153.601 15.7904H153.521C153.657 16.8988 153.728 18.0141 153.734 19.1306V26.7351C153.734 27.0255 153.64 27.1179 153.347 27.1179H152.828C152.534 27.1179 152.441 27.0255 152.441 26.7351V14.2194C152.441 13.9289 152.534 13.8365 152.828 13.8365H153.307C153.417 13.8264 153.527 13.8501 153.622 13.9045C153.718 13.9589 153.794 14.0412 153.84 14.1402L158.505 22.3519L163.142 14.2194C163.289 13.9421 163.369 13.9025 163.662 13.9025L164.209 13.8365Z" fill="#394149"/>
</svg>
