<svg width="23" height="22" viewBox="0 0 23 22" fill="none" xmlns="http://www.w3.org/2000/svg">
<path d="M16.0492 1.77859H6.87707C4.34426 1.77859 2.29102 3.76935 2.29102 6.22507V15.118C2.29102 17.5737 4.34426 19.5645 6.87707 19.5645H16.0492C18.582 19.5645 20.6352 17.5737 20.6352 15.118V6.22507C20.6352 3.76935 18.582 1.77859 16.0492 1.77859Z" stroke="#5B5B5B" stroke-width="2" stroke-linecap="round" stroke-linejoin="round"/>
<path d="M15.132 10.1113C15.2452 10.8514 15.1148 11.6073 14.7594 12.2714C14.404 12.9355 13.8416 13.4741 13.1523 13.8104C12.463 14.1468 11.6819 14.2639 10.92 14.145C10.1581 14.0262 9.45424 13.6774 8.90857 13.1484C8.3629 12.6193 8.00318 11.9369 7.88058 11.1982C7.75799 10.4595 7.87875 9.7021 8.22569 9.03378C8.57264 8.36545 9.1281 7.82022 9.81307 7.47561C10.498 7.13101 11.2776 7.0046 12.041 7.11435C12.8196 7.2263 13.5405 7.57808 14.0971 8.11774C14.6537 8.65741 15.0165 9.35633 15.132 10.1113Z" stroke="#5B5B5B" stroke-width="2" stroke-linecap="round" stroke-linejoin="round"/>
<path d="M16.5078 5.78043H16.5175" stroke="#5B5B5B" stroke-width="2" stroke-linecap="round" stroke-linejoin="round"/>
</svg>
