<svg width="108" height="22" viewBox="0 0 108 22" fill="none" xmlns="http://www.w3.org/2000/svg">
<g clip-path="url(#clip0_208_2)">
<path d="M107.809 16.7057V19.3783H105.567C103.175 19.3031 101.896 18.0112 101.896 15.5846V9.4806H100.331V7.13604H101.896V4.51123H105.205V7.1087H107.734V9.44642H105.205V15.2565C105.205 16.0426 105.362 16.6715 106.572 16.6715L107.809 16.7057Z" fill="#111111"/>
<path d="M87.1449 13.2813V13.1036C87.1091 12.3174 87.2288 11.5319 87.4972 10.7921C87.7655 10.0522 88.1773 9.37266 88.7088 8.79226C89.2403 8.21187 89.8811 7.74207 90.5945 7.4098C91.3079 7.07753 92.0798 6.88932 92.8661 6.85596C93.0233 6.85596 93.1874 6.85596 93.3446 6.85596C96.4684 6.85596 99.2094 8.67418 99.2094 13.0079V13.9306H90.5284C90.6173 15.9266 91.6973 17.0544 93.5155 17.0544C95.0808 17.0544 95.8122 16.3709 96.0241 15.3729H99.1479C98.7651 17.9772 96.6871 19.4263 93.3993 19.4263C89.7902 19.399 87.1449 17.116 87.1449 13.2813ZM95.9557 11.839C95.8395 10.0208 94.9236 9.14583 93.3309 9.14583C91.7383 9.14583 90.8223 10.1301 90.5968 11.839H95.9557Z" fill="#111111"/>
<path d="M73.638 13.2813V13.1036C73.6022 12.3185 73.7215 11.534 73.989 10.7951C74.2565 10.0561 74.667 9.37714 75.1971 8.79692C75.7272 8.21671 76.3664 7.74664 77.0782 7.4136C77.7901 7.08056 78.5605 6.89107 79.3456 6.85596C79.5029 6.85596 79.6669 6.85596 79.8241 6.85596C82.9479 6.85596 85.6958 8.67418 85.6958 13.0079V13.9306H77.0216C77.1105 15.9266 78.1905 17.0544 80.0087 17.0544C81.574 17.0544 82.3054 16.3709 82.5173 15.3729H85.6411C85.2515 17.9772 83.1735 19.4263 79.8856 19.4263C76.2834 19.399 73.638 17.116 73.638 13.2813ZM82.4489 11.839C82.3327 10.0208 81.4168 9.14583 79.8241 9.14583C78.2315 9.14583 77.3429 10.1575 77.0899 11.8322L82.4489 11.839Z" fill="#111111"/>
<path d="M54.6836 7.10889H58.1833L60.3228 15.2157L62.6674 7.10889H65.4016L67.5206 15.2157L69.7762 7.10889H72.9821L69.1816 19.1529H65.9006L63.8499 11.5929L61.6557 19.1529H58.3337L54.6836 7.10889Z" fill="#111111"/>
<path d="M43.5625 15.3661H46.6863C46.8298 16.4529 47.3698 17.0749 48.8053 17.0749C50.0904 17.0749 50.685 16.5896 50.685 15.7625C50.685 14.9354 50.0015 14.5868 48.2516 14.3408C45.0458 13.8554 43.8086 12.9327 43.8086 10.5813C43.8086 8.07266 46.1053 6.82861 48.5934 6.82861C51.266 6.82861 53.2825 7.79925 53.5696 10.5676H50.4868C50.4671 10.3536 50.4052 10.1456 50.3047 9.95563C50.2042 9.76567 50.067 9.59751 49.9012 9.46086C49.7353 9.32421 49.544 9.22179 49.3383 9.1595C49.1326 9.09722 48.9166 9.07631 48.7028 9.09798H48.6002C47.5202 9.09798 46.8914 9.6038 46.8914 10.342C46.8914 11.0803 47.4724 11.4015 49.2359 11.6544C52.2298 12.1056 53.9045 12.8643 53.9045 15.4413C53.9045 18.0182 52.0111 19.399 48.8395 19.399C45.6678 19.399 43.6514 17.9704 43.5625 15.3661Z" fill="#111111"/>
<path d="M30.2881 7.10892H33.5964V9.01601C33.9693 8.31602 34.5354 7.7378 35.2272 7.35005C35.9191 6.96231 36.7078 6.78135 37.4995 6.82867C39.844 6.82867 41.5461 8.25728 41.5461 11.5178V19.1803H38.2787V11.9963C38.2787 10.3626 37.643 9.58335 36.1666 9.58335C35.8545 9.55618 35.5401 9.59092 35.2415 9.68556C34.9429 9.7802 34.666 9.93289 34.4265 10.1349C34.1871 10.3368 33.9899 10.5841 33.8463 10.8625C33.7027 11.1408 33.6154 11.4448 33.5896 11.757C33.5725 11.9023 33.5725 12.0492 33.5896 12.1945V19.153H30.2881V7.10892Z" fill="#111111"/>
<path d="M23.9034 4.08097C23.8915 3.75112 23.9776 3.42512 24.151 3.14426C24.3244 2.86339 24.5772 2.64029 24.8775 2.5032C25.1777 2.36611 25.5119 2.32119 25.8377 2.37414C26.1635 2.42708 26.4663 2.5755 26.7077 2.80062C26.9491 3.02573 27.1183 3.31741 27.1938 3.63872C27.2693 3.96004 27.2478 4.29654 27.132 4.60563C27.0162 4.91471 26.8112 5.18248 26.5432 5.37504C26.2751 5.56759 25.9559 5.67626 25.626 5.6873H25.5645C25.3597 5.70026 25.1544 5.67267 24.9604 5.60611C24.7663 5.53954 24.5873 5.43532 24.4336 5.29942C24.2799 5.16351 24.1546 4.9986 24.0648 4.81414C23.975 4.62969 23.9225 4.42931 23.9103 4.22452C23.9046 4.17689 23.9023 4.12892 23.9034 4.08097ZM23.9034 7.10908H27.246V19.1531H23.9171L23.9034 7.10908Z" fill="#111111"/>
<path d="M11.3057 2.69336H21.8733V5.61209H15.0378V9.96627H20.4515V12.7756H15.031V19.1531H11.3057V2.69336Z" fill="#111111"/>
<path d="M4.92836 8.07949C4.92836 9.11164 4.92836 10.3694 3.50658 10.882C4.96253 11.381 4.92836 12.4405 4.92836 13.5478V17.6491C4.92836 18.4284 5.24279 18.9 5.80329 19.0162C5.92645 19.0578 6.05621 19.0763 6.18608 19.0709H7.55316V21.8051H5.29747C2.89139 21.8051 1.56532 20.438 1.56532 17.902V13.0489C1.54825 12.7997 1.43839 12.566 1.25743 12.3939C1.07646 12.2218 0.837545 12.1238 0.587848 12.1192H0V9.72H0.587848C0.842527 9.71664 1.08614 9.61536 1.26814 9.43718C1.45014 9.259 1.55656 9.01759 1.56532 8.76304V3.84152C1.56532 1.34658 2.86405 0 5.29747 0H7.57367V2.69316H6.20658C6.07656 2.69354 5.94739 2.7143 5.8238 2.75468C5.26329 2.89823 4.94886 3.36304 4.94886 4.12177L4.92836 8.07949Z" fill="#111111"/>
</g>
<defs>
<clipPath id="clip0_208_2">
<rect width="108" height="21.8734" fill="white"/>
</clipPath>
</defs>
</svg>
