<svg width="21" height="17" viewBox="0 0 21 17" fill="none" xmlns="http://www.w3.org/2000/svg">
<path d="M20.5644 0.668122C19.6861 1.26882 18.7136 1.72826 17.6844 2.02874C17.132 1.41292 16.3978 0.976433 15.5812 0.778329C14.7646 0.580225 13.905 0.630056 13.1185 0.921085C12.3321 1.21211 11.6568 1.7303 11.1841 2.40555C10.7113 3.08081 10.4638 3.88055 10.4751 4.69663V5.58592C8.86319 5.62644 7.266 5.27984 5.82573 4.57697C4.38547 3.8741 3.14684 2.83679 2.22017 1.55742C2.22017 1.55742 -1.44868 9.56107 6.80622 13.1182C4.91725 14.3614 2.66699 14.9848 0.385742 14.8968C8.64065 19.3433 18.73 14.8968 18.73 4.66995C18.7291 4.42224 18.7046 4.17514 18.6566 3.93183C19.5927 3.03675 20.2533 1.90665 20.5644 0.668122V0.668122Z" fill="#5B5B5B"/>
</svg>
