<svg width="20" height="17" viewBox="0 0 20 17" fill="none" xmlns="http://www.w3.org/2000/svg">
<path d="M19.5645 0.51724C18.7129 1.11774 17.77 1.57702 16.7721 1.8774C16.2365 1.26178 15.5247 0.825448 14.733 0.62741C13.9412 0.429372 13.1078 0.479187 12.3453 0.770118C11.5828 1.06105 10.928 1.57906 10.4696 2.25409C10.0113 2.92911 9.7713 3.72859 9.78224 4.54439V5.43339C8.21942 5.4739 6.67084 5.12741 5.27441 4.42477C3.87798 3.72214 2.67706 2.68518 1.77859 1.40624C1.77859 1.40624 -1.77859 9.4072 6.22506 12.9632C4.39358 14.206 2.21181 14.8291 0 14.7412C8.00365 19.1861 17.7859 14.7412 17.7859 4.51772C17.7851 4.27009 17.7613 4.02308 17.7147 3.77985C18.6224 2.88507 19.2629 1.75536 19.5645 0.51724Z" fill="#5B5B5B"/>
</svg>
