<svg width="32" height="32" viewBox="0 0 32 32" fill="none" xmlns="http://www.w3.org/2000/svg">
<path d="M15.1497 24.96C12.7479 24.8464 10.4822 23.8115 8.82322 22.0703C7.1642 20.3291 6.23938 18.0154 6.24086 15.6098C6.24086 10.4429 10.4378 6.2439 15.6021 6.2439C20.626 6.2439 24.7138 10.1932 24.9478 15.1571L21.6714 14.1737C21.4164 13.0916 20.8771 12.0972 20.1094 11.2935C19.3417 10.4897 18.3733 9.90565 17.3044 9.60169C16.2355 9.29774 15.1049 9.28491 14.0294 9.56453C12.9539 9.84415 11.9725 10.4061 11.1868 11.1922C10.401 11.9783 9.83935 12.9602 9.55986 14.0362C9.28038 15.1122 9.29321 16.2434 9.59701 17.3128C9.90082 18.3823 10.4846 19.3511 11.288 20.1192C12.0913 20.8873 13.0852 21.4268 14.1667 21.682L15.1497 24.96ZM31.2043 15.6098C31.2043 16.078 31.1887 16.5463 31.1419 17.0146L28.0683 16.0937C28.0839 15.9376 28.0839 15.7659 28.0839 15.6098C28.0839 8.71024 22.4983 3.12195 15.6021 3.12195C8.706 3.12195 3.12043 8.71024 3.12043 15.6098C3.12043 22.5093 8.706 28.0976 15.6021 28.0976C15.7582 28.0976 15.9298 28.0976 16.0858 28.0819L17.0063 31.1571C16.5383 31.2039 16.0702 31.2195 15.6021 31.2195C6.98976 31.2195 0 24.2263 0 15.6098C0 6.99317 6.98976 0 15.6021 0C24.2145 0 31.2043 6.99317 31.2043 15.6098ZM25.3223 22.2595L31.2043 20.2927L15.6021 15.6098L20.2828 31.2195L22.2487 25.3346L28.9108 32L32 28.9093L25.3223 22.2595Z" fill="#232ED1"/>
</svg>
