<svg width="24" height="32" viewBox="0 0 24 32" fill="none" xmlns="http://www.w3.org/2000/svg">
<path d="M18.9755 21.0865V31.2597C18.9756 31.3906 18.9413 31.5192 18.8763 31.6324C18.8113 31.7456 18.7179 31.8392 18.6055 31.9038C18.4932 31.9684 18.366 32.0015 18.2369 31.9999C18.1077 31.9984 17.9813 31.9621 17.8706 31.8947L11.6773 28.1257L5.48393 31.8947C5.37306 31.9621 5.24653 31.9984 5.11729 32C4.98804 32.0015 4.86071 31.9682 4.74833 31.9034C4.63594 31.8387 4.54252 31.7448 4.47763 31.6314C4.41273 31.5181 4.37868 31.3893 4.37897 31.2582V21.088C2.49039 19.5544 1.11809 17.4638 0.451704 15.1051C-0.214678 12.7463 -0.142235 10.2359 0.659022 7.92072C1.46028 5.60553 2.95079 3.5999 4.92457 2.18101C6.89834 0.762109 9.25794 0 11.6773 0C14.0966 0 16.4562 0.762109 18.4299 2.18101C20.4037 3.5999 21.8942 5.60553 22.6955 7.92072C23.4967 10.2359 23.5692 12.7463 22.9028 15.1051C22.2364 17.4638 20.8641 19.5544 18.9755 21.088V21.0865ZM11.6773 20.7238C14 20.7238 16.2276 19.788 17.8701 18.1223C19.5125 16.4565 20.4352 14.1973 20.4352 11.8415C20.4352 9.48582 19.5125 7.22658 17.8701 5.56083C16.2276 3.89508 14 2.95927 11.6773 2.95927C9.3545 2.95927 7.12689 3.89508 5.48446 5.56083C3.84202 7.22658 2.91931 9.48582 2.91931 11.8415C2.91931 14.1973 3.84202 16.4565 5.48446 18.1223C7.12689 19.788 9.3545 20.7238 11.6773 20.7238ZM11.6773 17.7631C10.1288 17.7631 8.64368 17.1392 7.54872 16.0287C6.45377 14.9182 5.83863 13.412 5.83863 11.8415C5.83863 10.2711 6.45377 8.7649 7.54872 7.6544C8.64368 6.5439 10.1288 5.92003 11.6773 5.92003C13.2258 5.92003 14.7108 6.5439 15.8058 7.6544C16.9007 8.7649 17.5159 10.2711 17.5159 11.8415C17.5159 13.412 16.9007 14.9182 15.8058 16.0287C14.7108 17.1392 13.2258 17.7631 11.6773 17.7631Z" fill="#232ED1"/>
</svg>
